<svg width="1142" height="1165" viewBox="0 0 1142 1165" fill="none" xmlns="http://www.w3.org/2000/svg">
<path d="M652.217 451.214C661.514 454.19 669.401 458.604 675.88 464.46C689.307 476.113 696.02 491.694 696.02 511.2V522.979C696.02 538.433 691.713 551.607 683.1 562.5C674.74 573.14 662.707 580.487 647 584.54L695.64 674.22C698.462 679.43 700.634 683.338 702.154 685.943L659.874 679.726L612.8 587.96H587.575L587.494 587.425L587.478 587.313L579.689 575.8H618.88C632.053 575.8 642.313 571.62 649.66 563.26C657.26 554.646 661.06 541.727 661.06 524.5V509.68C661.06 492.453 657.26 479.66 649.66 471.3C646.885 468.142 643.693 465.58 640.086 463.615L652.217 451.214Z" fill="url(#paint0_linear_1_3)"/>
<path d="M771.425 648.529C764.626 673.252 751.586 693.878 730.372 706.379L730.312 706.414L730.252 706.448C712.073 717.025 691.68 722 669.8 722C631.459 722 599.012 708.804 576.446 680.176L576.39 680.104L576.334 680.032C572.488 675.079 569.038 669.87 565.965 664.422L584.35 645.616C587.649 652.515 591.558 658.876 596.08 664.7C613.053 686.233 637.627 697 669.8 697C687.786 697 703.746 692.946 717.68 684.84C731.529 676.679 741.272 662.844 746.913 643.336L777.75 625.53L771.425 648.529Z" fill="url(#paint1_linear_1_3)"/>
<path d="M666 406C688.124 406 708.605 410.403 725.924 420.929C742.267 430.618 754.883 444.014 762.742 461.062L763.096 461.825C770.432 477.884 772.669 495.151 770.358 512.946C770.298 513.41 770.235 513.873 770.169 514.335L767.892 530.274L745.432 510.713C745.478 510.384 745.524 510.055 745.566 509.727C747.355 495.955 745.532 483.266 740.1 471.66C734.526 459.5 725.533 449.747 713.12 442.4C700.707 434.8 685 431 666 431C645.48 431 628.127 435.94 613.94 445.82C599.754 455.7 588.986 469.507 581.64 487.24C581.423 487.782 581.209 488.327 580.999 488.875L548.584 514.565C550.607 501.63 553.85 489.398 558.428 477.955L558.485 477.813L558.544 477.672C567.511 456.026 581.119 438.212 599.652 425.305C618.768 411.992 641.348 406 666 406Z" fill="url(#paint2_linear_1_3)"/>
<path d="M510.866 697.568C512.81 702.459 515.143 707.378 517.716 712.21C517.657 712.24 517.599 712.27 517.54 712.3C505.538 718.423 490.457 721.585 472.297 721.788C467.369 717.568 462.745 713.191 458.443 708.778C462.354 709.352 466.347 709.64 470.421 709.64C487.073 709.64 500.554 705.615 510.866 697.568ZM435.805 701.462C437.645 702.54 439.556 703.494 441.54 704.32C444.289 705.389 447.085 706.296 449.926 707.043C454.425 711.959 459.324 716.886 464.595 721.665C453.503 721.153 442.778 719.172 432.421 715.72C423.388 712.645 415.303 707.892 408.165 701.463C416.443 701.671 425.087 701.692 434.107 701.499L435.805 701.462ZM473.801 406C496.839 406 518.084 410.269 535.632 420.934C552.115 430.708 564.729 444.326 571.838 461.91C575.474 470.905 577.555 480.184 578.183 489.639L552.153 509.245C554.511 496.148 553.495 483.866 549.101 472.398L548.66 471.28C543.847 459.374 535.234 449.747 522.82 442.4C510.407 434.8 494.067 431 473.801 431C455.561 431 440.487 434.293 428.58 440.88C416.927 447.466 408.187 456.08 402.36 466.72C396.787 477.36 394 488.76 394 500.92C394 519.16 399.067 534.614 409.2 547.28C412.31 551.167 415.849 554.707 419.817 557.902L473.197 571.484L473.352 571.524L473.501 571.466L474.211 571.19L491.7 576.26C534.007 587.913 555.16 612.614 555.16 650.36C555.16 663.787 551.993 675.947 545.66 686.84C540.337 696.156 532.488 703.821 522.115 709.835C519.312 704.567 516.845 699.272 514.881 694.096C523.24 685.895 527.421 674.611 527.421 660.24C527.421 647.32 523.494 636.554 515.641 627.94C507.787 619.074 494.107 611.98 474.601 606.66L448.381 599.06C440.266 596.817 432.962 593.922 426.467 590.375L425.196 590.47C411.258 583.865 399.2 574.8 389.679 562.897C375.559 545.248 369 524.09 369 500.92C369 484.772 372.743 469.385 380.215 455.12L380.322 454.915L380.433 454.712C388.724 439.571 401.005 427.75 416.279 419.116L416.379 419.06L416.479 419.004C433.138 409.788 452.713 406 473.801 406ZM391.979 679.011C401.044 679.749 409.254 680.175 416.059 680.371C416.893 681.988 417.787 683.511 418.74 684.94C421.768 689.482 425.173 693.364 428.955 696.586C419.897 696.702 411.238 696.597 402.968 696.302C402.522 695.815 402.078 695.322 401.641 694.82C397.845 690.334 394.626 685.064 391.979 679.011ZM411.652 669.187C412.078 670.628 412.534 672.021 413.021 673.365L407.5 676.5C409.05 674.009 410.429 671.57 411.652 669.187ZM408.971 657.064C409.209 658.57 409.471 660.038 409.758 661.467C408.085 665.401 405.945 669.535 403.255 673.858L404.207 674.85C401.117 674.672 397.864 674.455 394.479 674.193C399.231 670.454 404.681 664.652 408.971 657.064ZM407.721 646.18C407.762 646.731 407.807 647.278 407.854 647.821C403.245 659.567 395.169 667.839 389.231 671.843C389.211 671.781 389.192 671.72 389.172 671.658C393.205 663.688 395.918 656.316 397.6 649.553L407.721 646.18ZM391.916 651.448C390.73 655.532 389.142 659.861 387.083 664.436C386.579 662.425 386.12 660.354 385.706 658.222C386.885 656.448 388.006 654.511 389.036 652.408L391.916 651.448ZM670.411 453.923L568.219 576.86C568.369 582.122 568.079 587.656 567.043 592.687C566.025 597.629 564.296 602.042 561.6 605.235C560.651 606.359 559.578 607.333 558.371 608.129C552.595 580.102 532.006 561.212 496.601 551.46L470.38 543.86C452.393 538.794 439.854 531.953 432.761 523.34C425.667 514.473 422.12 503.833 422.12 491.42C422.12 475.713 426.553 463.807 435.42 455.7C444.287 447.34 456.447 443.16 471.9 443.16C491.407 443.16 505.087 449.494 512.94 462.16C520.932 474.647 523.38 492.425 520.293 515.497L520.233 515.508L519.897 515.567L519.83 515.902C519.231 518.896 519.181 523.645 520.968 528.22C522.762 532.815 526.409 537.223 533.163 539.475C533.829 539.697 534.515 539.894 535.217 540.07C543.865 544.848 551.672 550.562 558.438 557.337L655.03 441.138L670.411 453.923ZM471.9 468.16C461.042 468.16 455.647 470.989 452.57 473.89L452.431 474.021L452.289 474.15C450.073 476.176 447.12 480.456 447.12 491.42C447.12 498.62 449.019 503.572 452.15 507.556C454.478 510.304 460.88 515.02 475.681 519.371L477.159 519.797L477.25 519.822L477.34 519.849L493.782 524.614L495.401 513.039C498.323 492.135 495.364 481.075 491.884 475.637L491.787 475.485L491.692 475.334C489.791 472.267 485.777 468.16 471.9 468.16ZM551.114 510.028L546.738 510.805L551.413 509.803L551.114 510.028Z" fill="url(#paint3_linear_1_3)"/>
<mask id="mask0_1_3" style="mask-type:alpha" maskUnits="userSpaceOnUse" x="187" y="529" width="363" height="229">
<path d="M187 603.5C227.8 572.3 319 540.833 359.5 529C359.5 572.2 409.167 598 434 605.5L436.5 621.5C475.627 634.7 500.803 652.667 508.5 660L467.5 657.5C470.3 660.7 493.667 668.5 505 672C505.4 701.6 535.167 741.667 550 758C487.6 751.6 441.333 694 426 666L407.5 676.5C429.9 640.5 416.833 615.5 407.5 607.5C419.9 641.1 400.333 664.5 389 672C410.2 630.4 395.5 605 385.5 597.5C398.3 637.9 381.167 660 371 666C389.8 626 373.167 599.667 362.5 591.5C372.9 610.7 369.5 635.833 366.5 646C343.7 619.401 257 611.584 216.5 611C221.667 615.667 234.6 625.2 245 626C255.4 626.8 273.667 627.667 281.5 628C303.1 627.6 326.5 641.5 335.5 648.5C331.333 647.5 321.5 645.6 315.5 646C309.5 646.4 296 653.5 290 657C330.4 675.4 395.5 680.333 423 680.5L434 696.5C322 698.9 269.333 668.167 257 652.5C289.4 644.9 297.833 641.667 298 641C291.2 636.6 256.167 640.167 239.5 642.5C210.3 630.9 192.333 611.667 187 603.5Z" fill="#12416B"/>
</mask>
<g mask="url(#mask0_1_3)">
<path d="M187 603.5C227.8 572.3 319 540.833 359.5 529C359.5 572.2 409.167 598 434 605.5L436.5 621.5C475.627 634.7 500.803 652.667 508.5 660L467.5 657.5C470.3 660.7 493.667 668.5 505 672C505.4 701.6 535.167 741.667 550 758C487.6 751.6 441.333 694 426 666L407.5 676.5C429.9 640.5 416.833 615.5 407.5 607.5C419.9 641.1 400.333 664.5 389 672C410.2 630.4 395.5 605 385.5 597.5C398.3 637.9 381.167 660 371 666C389.8 626 373.167 599.667 362.5 591.5C372.9 610.7 369.5 635.833 366.5 646C343.7 619.401 257 611.584 216.5 611C221.667 615.667 234.6 625.2 245 626C255.4 626.8 273.667 627.667 281.5 628C303.1 627.6 326.5 641.5 335.5 648.5C331.333 647.5 321.5 645.6 315.5 646C309.5 646.4 296 653.5 290 657C330.4 675.4 395.5 680.333 423 680.5L434 696.5C322 698.9 269.333 668.167 257 652.5C289.4 644.9 297.833 641.667 298 641C291.2 636.6 256.167 640.167 239.5 642.5C210.3 630.9 192.333 611.667 187 603.5Z" fill="#12416B"/>
<path d="M405 589.251C371.74 565.353 363.425 537.126 363.425 527C330.164 527 223.616 578.191 176 603C222.479 609.076 261.973 596.508 274.41 589.251C330.271 580.34 384.745 585.538 405 589.251Z" fill="url(#paint4_linear_1_3)"/>
<path d="M299 600C306.18 600 312 594.18 312 587C312 579.82 306.18 574 299 574C291.82 574 286 579.82 286 587C286 594.18 291.82 600 299 600Z" fill="url(#paint5_radial_1_3)"/>
</g>
<mask id="mask1_1_3" style="mask-type:alpha" maskUnits="userSpaceOnUse" x="654" y="451" width="313" height="205">
<path d="M677 619.5L689.5 634.5L696.5 632C718.1 644.4 736.5 644.833 743 643.5C731.4 635.9 730.5 624.333 731.5 619.5C765.1 603.9 782.833 602 787.5 603C799.1 613.8 815.5 614.526 823 613.359C822.838 613.243 822.671 613.123 822.5 613C812.5 605.8 813 598 814.5 595C818.833 593.833 829.9 591.1 839.5 589.5C849.1 587.9 856.833 594.167 859.5 597.5C885.1 637.271 921.5 653.071 936.5 656C918.1 632.8 904.167 589.667 899.5 571C907 564 934.5 496.5 938.5 492.5C941.7 489.3 949.833 489.833 953.5 490.5C949.1 484.5 960.333 461.667 966.5 451C932.9 451.8 886.5 501.667 867.5 526.5C864.833 530.833 856.7 541.5 845.5 549.5L824.5 547.5C809.7 547.9 811.333 532 814 524C808.4 521.2 788.333 531.167 779 536.5L709.5 514C702.5 572.5 654 589.5 654 592C654 594 739 586.833 781.5 583L677 619.5Z" fill="#12416B"/>
</mask>
<g mask="url(#mask1_1_3)">
<path d="M677 619.5L689.5 634.5L696.5 632C718.1 644.4 736.5 644.833 743 643.5C731.4 635.9 730.5 624.333 731.5 619.5C765.1 603.9 782.833 602 787.5 603C799.1 613.8 815.5 614.526 823 613.359C822.838 613.243 822.671 613.123 822.5 613C812.5 605.8 813 598 814.5 595C818.833 593.833 829.9 591.1 839.5 589.5C849.1 587.9 856.833 594.167 859.5 597.5C885.1 637.271 921.5 653.071 936.5 656C918.1 632.8 904.167 589.667 899.5 571C907 564 934.5 496.5 938.5 492.5C941.7 489.3 949.833 489.833 953.5 490.5C949.1 484.5 960.333 461.667 966.5 451C932.9 451.8 886.5 501.667 867.5 526.5C864.833 530.833 856.7 541.5 845.5 549.5L824.5 547.5C809.7 547.9 811.333 532 814 524C808.4 521.2 788.333 531.167 779 536.5L709.5 514C702.5 572.5 654 589.5 654 592C654 594 739 586.833 781.5 583L677 619.5Z" fill="url(#paint6_linear_1_3)"/>
<path d="M907 504.042C920.6 478.842 951 457.209 964.5 449.542C953 445.042 912.5 469.042 885.5 504.042C858.5 539.042 850.5 547.042 845 547.542C839.5 548.042 824 547.5 817 544C811.4 541.2 812.667 529.5 814 524C808 520 787.833 528.875 779.5 534.542L710 513.542C712 518.342 705.5 534.875 702 542.542C738 556.042 820 571.542 845 568.542C870 565.542 890 535.542 907 504.042Z" fill="url(#paint7_linear_1_3)" stroke="#EE7B23"/>
<path d="M966.5 448C969 455 952.4 478.7 954 491.5H939.5C929.333 513.5 907.3 560.1 900.5 570.5C906.24 592.476 925.472 645.083 939.806 659.336C940.046 659.567 940.277 659.788 940.5 660C940.27 659.789 940.038 659.568 939.806 659.336C928.889 648.858 900.067 619.307 889.5 606C876.802 590.01 864.989 568.713 849.069 568.734C847.883 568.964 846.852 569.042 846 569C847.04 568.822 848.063 568.735 849.069 568.734C857.392 567.12 873.395 558.009 889.5 530C899.5 511.333 928.9 468.8 966.5 448Z" fill="url(#paint8_linear_1_3)"/>
</g>
<defs>
<linearGradient id="paint0_linear_1_3" x1="702.154" y1="479.078" x2="579.689" y2="658.079" gradientUnits="userSpaceOnUse">
<stop stop-color="#EE7B23"/>
<stop offset="1" stop-color="#9B3A10"/>
</linearGradient>
<linearGradient id="paint1_linear_1_3" x1="777.75" y1="438.545" x2="548.584" y2="689.455" gradientUnits="userSpaceOnUse">
<stop offset="0.00480769" stop-color="#F8C357"/>
<stop offset="0.405344" stop-color="#EE7B23"/>
<stop offset="0.740756" stop-color="#9B3A10"/>
</linearGradient>
<linearGradient id="paint2_linear_1_3" x1="777.75" y1="438.545" x2="548.584" y2="689.455" gradientUnits="userSpaceOnUse">
<stop offset="0.00480769" stop-color="#F8C357"/>
<stop offset="0.405344" stop-color="#EE7B23"/>
<stop offset="0.740756" stop-color="#9B3A10"/>
</linearGradient>
<linearGradient id="paint3_linear_1_3" x1="595.598" y1="406" x2="443.813" y2="721.8" gradientUnits="userSpaceOnUse">
<stop offset="0.00480769" stop-color="#65A0C4"/>
<stop offset="0.322115" stop-color="#296F9A"/>
<stop offset="0.754503" stop-color="#12416B"/>
</linearGradient>
<linearGradient id="paint4_linear_1_3" x1="291" y1="490.5" x2="290.5" y2="604.61" gradientUnits="userSpaceOnUse">
<stop offset="0.423077" stop-color="#65A0C4"/>
<stop offset="1" stop-color="#314D5E"/>
</linearGradient>
<radialGradient id="paint5_radial_1_3" cx="0" cy="0" r="1" gradientUnits="userSpaceOnUse" gradientTransform="translate(293.5 592.5) rotate(142.815) scale(18.2003)">
<stop stop-color="#F8C357"/>
<stop offset="0.581731" stop-color="#F8C357"/>
<stop offset="1" stop-color="#846B38"/>
</radialGradient>
<linearGradient id="paint6_linear_1_3" x1="680" y1="520.5" x2="878.5" y2="636" gradientUnits="userSpaceOnUse">
<stop stop-color="#237FD1"/>
<stop offset="1" stop-color="#12416B"/>
</linearGradient>
<linearGradient id="paint7_linear_1_3" x1="833.25" y1="449" x2="981" y2="569" gradientUnits="userSpaceOnUse">
<stop stop-color="#EE7B23"/>
<stop offset="0.653846" stop-color="#884614"/>
</linearGradient>
<linearGradient id="paint8_linear_1_3" x1="1016.5" y1="511" x2="906.379" y2="660" gradientUnits="userSpaceOnUse">
<stop offset="0.620192" stop-color="#9B3A10"/>
<stop offset="1" stop-color="#351406"/>
</linearGradient>
</defs>
</svg>
